<?xml version="1.0" encoding="utf-8"?>
<!-- Generator: Adobe Illustrator 27.0.0, SVG Export Plug-In . SVG Version: 6.00 Build 0)  -->
<svg version="1.1" id="Layer_1" xmlns="http://www.w3.org/2000/svg" xmlns:xlink="http://www.w3.org/1999/xlink" x="0px" y="0px"
	 viewBox="0 0 500 500" style="enable-background:new 0 0 500 500;" xml:space="preserve">
<style type="text/css">
	.st0{fill:#05414E;}
</style>
<g>
	<path class="st0" d="M49.5,260.5c1.5,1.6,3.1,2.9,4.9,3.8c1.8,0.9,3.7,1.3,5.8,1.3c2.4,0,4.4-0.6,5.9-1.8s2.3-2.9,2.3-5
		c0-1.8-0.5-3.3-1.4-4.4c-0.9-1.1-2.3-2.1-4.1-3c-1.8-0.9-4-1.8-6.7-2.8c-1.4-0.5-3-1.2-4.8-2.1c-1.8-0.9-3.5-2-5.1-3.3
		c-1.6-1.4-3-3-4-5c-1.1-2-1.6-4.4-1.6-7.2c0-3.3,0.9-6.2,2.6-8.7c1.7-2.4,4-4.3,6.9-5.6c2.9-1.3,6.2-2,9.8-2c3.7,0,7,0.6,9.7,1.9
		c2.7,1.3,5,2.8,6.8,4.8c1.8,1.9,3.2,3.9,4.2,6l-9.4,5.2c-0.8-1.4-1.7-2.7-2.8-3.8c-1.1-1.1-2.3-2.1-3.7-2.8c-1.4-0.7-3-1-4.8-1
		c-2.3,0-4.1,0.5-5.3,1.6c-1.2,1.1-1.8,2.4-1.8,3.8c0,1.5,0.5,2.7,1.4,3.8c0.9,1.1,2.4,2.1,4.4,3.1c2,1,4.4,2,7.4,3
		c1.9,0.7,3.7,1.5,5.5,2.5c1.8,1,3.3,2.2,4.8,3.6c1.4,1.4,2.5,3.1,3.3,5c0.8,1.9,1.2,4.1,1.2,6.7c0,2.8-0.6,5.4-1.7,7.6
		c-1.1,2.2-2.7,4.1-4.6,5.7c-2,1.5-4.1,2.7-6.6,3.5c-2.4,0.8-5,1.2-7.7,1.2c-3.6,0-6.9-0.7-10-2.1c-3.1-1.4-5.8-3.2-8.1-5.6
		c-2.3-2.3-4.1-4.9-5.4-7.6l8.5-6C46.7,257,48,258.9,49.5,260.5z"/>
	<path class="st0" d="M157,215.9H171l-24.7,61.9l-18.4-38.5l-18.5,38.5l-24.6-61.9h14.1l12.7,36.4l16.3-39.3l16.5,39.3L157,215.9z"
		/>
	<path class="st0" d="M189.9,215.9v58.6h-12.1v-58.6H189.9z"/>
	<path class="st0" d="M211.7,274.5h-12.5l8.7-61.5l24.5,37.8L257,213l8.7,61.5h-12.5l-3.8-32.9l-17,27.5l-17-27.5L211.7,274.5z"/>
	<path class="st0" d="M277.3,274.5h-4.6l6.8-60.9l23.4,45l23.4-45l6.8,60.9h-4.6l-5-46.4l-20.6,39.6l-20.6-39.6L277.3,274.5z"/>
	<path class="st0" d="M343,233.3c1.5-3.7,3.5-6.8,6.1-9.5c2.6-2.7,5.7-4.8,9.2-6.3c3.5-1.5,7.4-2.3,11.6-2.3s8,0.8,11.6,2.3
		s6.6,3.6,9.2,6.3c2.6,2.7,4.7,5.9,6.1,9.5c1.5,3.7,2.2,7.6,2.2,11.9c0,4.3-0.7,8.3-2.2,11.9c-1.5,3.7-3.5,6.8-6.1,9.5
		c-2.6,2.7-5.7,4.8-9.2,6.3s-7.4,2.3-11.6,2.3s-8-0.8-11.6-2.3c-3.5-1.5-6.6-3.6-9.2-6.3c-2.6-2.7-4.7-5.9-6.1-9.5
		c-1.5-3.7-2.2-7.6-2.2-11.9C340.9,240.9,341.6,237,343,233.3z M348.9,258.3c2.1,3.9,5,6.9,8.6,9.1c3.7,2.2,7.8,3.3,12.5,3.3
		s8.9-1.1,12.5-3.3c3.7-2.2,6.5-5.2,8.6-9.1c2.1-3.8,3.1-8.2,3.1-13.1c0-4.9-1-9.3-3.1-13.1c-2.1-3.8-4.9-6.8-8.6-9
		c-3.7-2.2-7.8-3.3-12.5-3.3s-8.9,1.1-12.5,3.3c-3.7,2.2-6.5,5.2-8.6,9c-2.1,3.8-3.1,8.2-3.1,13.1
		C345.7,250.1,346.8,254.4,348.9,258.3z M359.4,210.2l-2.8-2.3l13.4-11.7l13.4,11.7l-2.8,2.3l-10.6-9.3L359.4,210.2z"/>
	<path class="st0" d="M459,215.9v60.9l-44.5-51.1v48.9h-4.6v-60.9l44.5,51.3v-49.1H459z"/>
</g>
</svg>
